<svg fill="none" stroke="currentColor" viewBox="0 0 50 50" xmlns="http://www.w3.org/2000/svg">
  <path stroke-linecap="round" stroke-linejoin="round" stroke-width="1.5"
        d="m 18.88625,10.3506 c 1.8816,-0.7862 3.947,-1.2204 6.1138,-1.2204 8.7646,0 15.8698,7.1051 15.8698,15.8698 0,8.7647 -7.1052,15.8699 -15.8698,15.8699 -8.7647,0 -15.87,-7.1052 -15.87,-15.8699 0,-2.2422 0.4651,-4.3759 1.304,-6.3097" />
  <path stroke-linecap="round" stroke-linejoin="round" stroke-width="1.5"
        d="m 36.19965,41.2933 c -3.1836,2.1925 -7.0417,3.4761 -11.1996,3.4761 -10.9184,0 -19.7695,-8.851 -19.7695,-19.7694 0,-10.9183 8.8511,-19.7694 19.7695,-19.7694 10.9183,0 19.7694,8.851 19.7694,19.7694 0,4.039 -1.2113,7.7951 -3.2904,10.9249" />
  <path stroke-linecap="round" stroke-linejoin="round" stroke-width="1.5"
        d="m 17.46735,24.2646 c -0.8215,0.8378 -0.8064,2.1797 0.0339,2.9989 l 2.4907,2.4977 c 2.1212,2.1212 2.8077,2.1097 4.923,0.0188 l 7.5273,-7.4407 c 2.074,-1.9931 -0.9868,-5.0624 -3.0035,-3.0119 l -6.972,6.8917 -1.9404,-1.9459 c -0.8349,-0.8611 -2.2194,-0.865 -3.059,-0.0086 z" />
  <path stroke-linecap="round" stroke-linejoin="round" stroke-width="1.5"
        d="m 39.233529,38.927954 0.0081,-0.0042" />
</svg>
