<svg fill="none" stroke="currentColor" viewBox="0 0 50 50" xmlns="http://www.w3.org/2000/svg">
    <path stroke-linecap="round" stroke-linejoin="round" stroke-width="1.5"
          d="m 5.2402,19.1572 v -1.625 a 2.3335,2.3335 0 0 1 2.3386,-2.3384 h 24.8894 a 2.3335,2.3335 0 0 1 2.3387,2.3386 v 24.8895 a 2.3335,2.3335 0 0 1 -2.3387,2.3386 H 7.5788 A 2.3335,2.3335 0 0 1 5.2402,42.4219 V 28.6775" />
    <path stroke-linecap="round" stroke-linejoin="round" stroke-width="1.5"
          d="m 13.8557,14.9893 3.8086,-8.3855 c 0.5358,-1.1796 1.9215,-1.6926 3.0996,-1.1535 l 3.7895,1.7339 m 6.3878,2.9228 12.4555,5.6991 c 1.1781,0.539 1.6912,1.9208 1.1536,3.0996 l -9.721,21.3138" />
    <path stroke-linecap="round" stroke-linejoin="round" stroke-width="1.5"
          d="m 23.4923,37.357 -5.611,-10.2266 c -0.7493,-1.2831 -2.0117,-1.271 -2.754,0 l -4.7741,8.0488 c -0.3945,0.6833 -0.5285,1.2014 -0.5285,1.8972 v 2.0145 c 0,1.1772 0.8807,1.8692 1.8908,1.8692 H 28.514 c 1.2953,0 2.165,-0.8695 2.165,-2.1401 v -2.2523 c 0,-1.4933 -0.8647,-2.107 -2.3774,-3.6196 -1.0884,-1.076 -2.0553,-0.8194 -2.8842,0 l -1.6442,1.3613 c -0.951,0.9313 -1.9064,0.0733 -2.2608,-0.5147 m 7.4281,-10.149 a 2.2679,2.2679 0 0 1 -2.2679,2.2678 2.2679,2.2679 0 0 1 -2.2678,-2.2678 2.2679,2.2679 0 0 1 2.2678,-2.2679 2.2679,2.2679 0 0 1 2.2679,2.2679 z" />
    <path stroke-linecap="round" stroke-linejoin="round" stroke-width="1.5"
          d="m 27.494968,8.7654263 0.0078,0.00391" />
</svg>
