<?xml version="1.0" encoding="UTF-8" standalone="no"?>
<!-- Created with Inkscape (http://www.inkscape.org/) -->

<svg
   xmlns:dc="http://purl.org/dc/elements/1.1/"
   xmlns:cc="http://creativecommons.org/ns#"
   xmlns:rdf="http://www.w3.org/1999/02/22-rdf-syntax-ns#"
   xmlns:svg="http://www.w3.org/2000/svg"
   xmlns="http://www.w3.org/2000/svg"
   xmlns:sodipodi="http://sodipodi.sourceforge.net/DTD/sodipodi-0.dtd"
   xmlns:inkscape="http://www.inkscape.org/namespaces/inkscape"
   width="50mm"
   height="50mm"
   viewBox="0 0 50 50"
   version="1.1"
   id="svg8"
   sodipodi:docname="messages.svg"
   inkscape:version="0.92.4 (5da689c313, 2019-01-14)">
  <defs
     id="defs2">
	

		
	
			
			
			
			
		</defs>
  <sodipodi:namedview
     id="base"
     pagecolor="#ffffff"
     bordercolor="#666666"
     borderopacity="1.0"
     inkscape:pageopacity="0.0"
     inkscape:pageshadow="2"
     inkscape:zoom="0.35355339"
     inkscape:cx="-236.2597"
     inkscape:cy="273.38513"
     inkscape:document-units="mm"
     inkscape:current-layer="layer1"
     showgrid="false"
     showguides="true"
     inkscape:guide-bbox="true"
     inkscape:snap-others="true"
     inkscape:snap-nodes="false"
     inkscape:window-width="2400"
     inkscape:window-height="1321"
     inkscape:window-x="-9"
     inkscape:window-y="-9"
     inkscape:window-maximized="1" />
  <metadata
     id="metadata5">
    <rdf:RDF>
      <cc:Work
         rdf:about="">
        <dc:format>image/svg+xml</dc:format>
        <dc:type
           rdf:resource="http://purl.org/dc/dcmitype/StillImage" />
        <dc:title></dc:title>
      </cc:Work>
    </rdf:RDF>
  </metadata>
  <g
     inkscape:label="Layer 1"
     inkscape:groupmode="layer"
     id="layer1"
     transform="translate(0,-247)">
    <g
       style="stroke-width:3.22816372"
       id="g1010"
       transform="matrix(0.08196094,0,0,0.08196094,101.5983,5.3008696)">
</g>
    <g
       style="stroke-width:3.22816372"
       id="g1012"
       transform="matrix(0.08196094,0,0,0.08196094,101.5983,5.3008696)">
</g>
    <g
       style="stroke-width:3.22816372"
       id="g1014"
       transform="matrix(0.08196094,0,0,0.08196094,101.5983,5.3008696)">
</g>
    <g
       style="stroke-width:3.22816372"
       id="g1016"
       transform="matrix(0.08196094,0,0,0.08196094,101.5983,5.3008696)">
</g>
    <g
       style="stroke-width:3.22816372"
       id="g1018"
       transform="matrix(0.08196094,0,0,0.08196094,101.5983,5.3008696)">
</g>
    <g
       style="stroke-width:3.22816372"
       id="g1020"
       transform="matrix(0.08196094,0,0,0.08196094,101.5983,5.3008696)">
</g>
    <g
       style="stroke-width:3.22816372"
       id="g1022"
       transform="matrix(0.08196094,0,0,0.08196094,101.5983,5.3008696)">
</g>
    <g
       style="stroke-width:3.22816372"
       id="g1024"
       transform="matrix(0.08196094,0,0,0.08196094,101.5983,5.3008696)">
</g>
    <g
       style="stroke-width:3.22816372"
       id="g1026"
       transform="matrix(0.08196094,0,0,0.08196094,101.5983,5.3008696)">
</g>
    <g
       style="stroke-width:3.22816372"
       id="g1028"
       transform="matrix(0.08196094,0,0,0.08196094,101.5983,5.3008696)">
</g>
    <g
       style="stroke-width:3.22816372"
       id="g1030"
       transform="matrix(0.08196094,0,0,0.08196094,101.5983,5.3008696)">
</g>
    <g
       style="stroke-width:3.22816372"
       id="g1032"
       transform="matrix(0.08196094,0,0,0.08196094,101.5983,5.3008696)">
</g>
    <g
       style="stroke-width:3.22816372"
       id="g1034"
       transform="matrix(0.08196094,0,0,0.08196094,101.5983,5.3008696)">
</g>
    <g
       style="stroke-width:3.22816372"
       id="g1036"
       transform="matrix(0.08196094,0,0,0.08196094,101.5983,5.3008696)">
</g>
    <g
       style="stroke-width:3.22816372"
       id="g1038"
       transform="matrix(0.08196094,0,0,0.08196094,101.5983,5.3008696)">
</g>
    <g
       id="g1259"
       transform="translate(-51.981077,199.4532)">
      <path
         sodipodi:nodetypes="csscccccsc"
         inkscape:connector-curvature="0"
         id="ellipse1215"
         d="m 80.239311,56.839075 c 0.856716,-0.118897 1.741939,-0.181197 2.647644,-0.181197 7.583407,0 13.730974,4.367613 13.730973,9.755338 0,1.69771 -0.610408,3.294131 -1.683803,4.684527 l 1.584304,5.431777 -5.501342,-2.254034 c -1.77968,0.930471 -3.886745,1.563259 -6.175705,1.794999 M 69.364147,68.11483 c -0.136812,-0.552573 -0.208164,-1.121173 -0.208164,-1.701612 0,-2.845963 1.715343,-5.407287 4.451562,-7.190579"
         style="opacity:1;fill:none;fill-opacity:1;stroke:#000000;stroke-width:1.5;stroke-linecap:round;stroke-linejoin:round;stroke-miterlimit:4;stroke-dasharray:none;stroke-opacity:1" />
      <path
         style="opacity:1;fill:none;fill-opacity:1;stroke:#000000;stroke-width:1.5;stroke-linecap:round;stroke-linejoin:round;stroke-miterlimit:4;stroke-dasharray:none;stroke-opacity:1"
         d="m 73.722844,68.745325 c -0.856716,-0.118897 -1.741939,-0.181197 -2.647644,-0.181197 -7.583407,0 -13.730974,4.367613 -13.730973,9.755338 0,1.69771 0.610408,3.294131 1.683803,4.684527 l -1.584304,5.431777 5.501342,-2.254034 c 2.276024,1.189975 5.087508,1.893067 8.130132,1.893067 7.583406,0 13.730972,-4.367613 13.730972,-9.755337 0,-2.066854 -0.904715,-3.983582 -2.448139,-5.561196"
         id="path1218"
         inkscape:connector-curvature="0"
         sodipodi:nodetypes="csscccssc" />
      <path
         style="fill:none;stroke:#000000;stroke-width:1.5;stroke-linecap:round;stroke-linejoin:round;stroke-miterlimit:4;stroke-dasharray:none;stroke-opacity:1"
         d="m 76.789062,57.70536 0.0041,0.0031"
         id="path1305-3"
         inkscape:connector-curvature="0"
         sodipodi:nodetypes="cc" />
      <path
         style="fill:none;stroke:#000000;stroke-width:1.5;stroke-linecap:round;stroke-linejoin:round;stroke-miterlimit:4;stroke-dasharray:none;stroke-opacity:1"
         d="m 67.294312,78.285114 0.0041,0.0031"
         id="path1305-6"
         inkscape:connector-curvature="0"
         sodipodi:nodetypes="cc" />
      <path
         style="fill:none;stroke:#000000;stroke-width:1.5;stroke-linecap:round;stroke-linejoin:round;stroke-miterlimit:4;stroke-dasharray:none;stroke-opacity:1"
         d="m 71.36349,78.285114 0.0041,0.0031"
         id="path1305-9"
         inkscape:connector-curvature="0"
         sodipodi:nodetypes="cc" />
      <path
         style="fill:none;stroke:#000000;stroke-width:1.5;stroke-linecap:round;stroke-linejoin:round;stroke-miterlimit:4;stroke-dasharray:none;stroke-opacity:1"
         d="m 74.988333,78.285114 0.0041,0.0031"
         id="path1305-7"
         inkscape:connector-curvature="0"
         sodipodi:nodetypes="cc" />
    </g>
  </g>
</svg>
