<?xml version="1.0" encoding="UTF-8" standalone="no"?>
<!-- Created with Inkscape (http://www.inkscape.org/) -->

<svg
   xmlns:dc="http://purl.org/dc/elements/1.1/"
   xmlns:cc="http://creativecommons.org/ns#"
   xmlns:rdf="http://www.w3.org/1999/02/22-rdf-syntax-ns#"
   xmlns:svg="http://www.w3.org/2000/svg"
   xmlns="http://www.w3.org/2000/svg"
   xmlns:sodipodi="http://sodipodi.sourceforge.net/DTD/sodipodi-0.dtd"
   xmlns:inkscape="http://www.inkscape.org/namespaces/inkscape"
   width="50mm"
   height="50mm"
   viewBox="0 0 50 50"
   version="1.1"
   id="svg8"
   sodipodi:docname="reject.svg"
   inkscape:version="0.92.4 (5da689c313, 2019-01-14)">
  <defs
     id="defs2">
	

		
	
			
			
			
			
		</defs>
  <sodipodi:namedview
     id="base"
     pagecolor="#ffffff"
     bordercolor="#666666"
     borderopacity="1.0"
     inkscape:pageopacity="0.0"
     inkscape:pageshadow="2"
     inkscape:zoom="0.35355339"
     inkscape:cx="-279.21914"
     inkscape:cy="178.49293"
     inkscape:document-units="mm"
     inkscape:current-layer="layer1"
     showgrid="false"
     showguides="true"
     inkscape:guide-bbox="true"
     inkscape:snap-others="true"
     inkscape:snap-nodes="false"
     inkscape:window-width="2400"
     inkscape:window-height="1321"
     inkscape:window-x="-9"
     inkscape:window-y="-9"
     inkscape:window-maximized="1" />
  <metadata
     id="metadata5">
    <rdf:RDF>
      <cc:Work
         rdf:about="">
        <dc:format>image/svg+xml</dc:format>
        <dc:type
           rdf:resource="http://purl.org/dc/dcmitype/StillImage" />
        <dc:title></dc:title>
      </cc:Work>
    </rdf:RDF>
  </metadata>
  <g
     inkscape:label="Layer 1"
     inkscape:groupmode="layer"
     id="layer1"
     transform="translate(0,-247)">
    <g
       style="stroke-width:3.22816372"
       id="g1010"
       transform="matrix(0.08196094,0,0,0.08196094,101.5983,5.3008696)">
</g>
    <g
       style="stroke-width:3.22816372"
       id="g1012"
       transform="matrix(0.08196094,0,0,0.08196094,101.5983,5.3008696)">
</g>
    <g
       style="stroke-width:3.22816372"
       id="g1014"
       transform="matrix(0.08196094,0,0,0.08196094,101.5983,5.3008696)">
</g>
    <g
       style="stroke-width:3.22816372"
       id="g1016"
       transform="matrix(0.08196094,0,0,0.08196094,101.5983,5.3008696)">
</g>
    <g
       style="stroke-width:3.22816372"
       id="g1018"
       transform="matrix(0.08196094,0,0,0.08196094,101.5983,5.3008696)">
</g>
    <g
       style="stroke-width:3.22816372"
       id="g1020"
       transform="matrix(0.08196094,0,0,0.08196094,101.5983,5.3008696)">
</g>
    <g
       style="stroke-width:3.22816372"
       id="g1022"
       transform="matrix(0.08196094,0,0,0.08196094,101.5983,5.3008696)">
</g>
    <g
       style="stroke-width:3.22816372"
       id="g1024"
       transform="matrix(0.08196094,0,0,0.08196094,101.5983,5.3008696)">
</g>
    <g
       style="stroke-width:3.22816372"
       id="g1026"
       transform="matrix(0.08196094,0,0,0.08196094,101.5983,5.3008696)">
</g>
    <g
       style="stroke-width:3.22816372"
       id="g1028"
       transform="matrix(0.08196094,0,0,0.08196094,101.5983,5.3008696)">
</g>
    <g
       style="stroke-width:3.22816372"
       id="g1030"
       transform="matrix(0.08196094,0,0,0.08196094,101.5983,5.3008696)">
</g>
    <g
       style="stroke-width:3.22816372"
       id="g1032"
       transform="matrix(0.08196094,0,0,0.08196094,101.5983,5.3008696)">
</g>
    <g
       style="stroke-width:3.22816372"
       id="g1034"
       transform="matrix(0.08196094,0,0,0.08196094,101.5983,5.3008696)">
</g>
    <g
       style="stroke-width:3.22816372"
       id="g1036"
       transform="matrix(0.08196094,0,0,0.08196094,101.5983,5.3008696)">
</g>
    <g
       style="stroke-width:3.22816372"
       id="g1038"
       transform="matrix(0.08196094,0,0,0.08196094,101.5983,5.3008696)">
</g>
    <g
       id="g1297"
       transform="translate(-98.350955,248.43728)">
      <path
         sodipodi:nodetypes="cssssc"
         inkscape:connector-curvature="0"
         id="path1289"
         d="m 117.23719,8.913296 c 1.88165,-0.7861985 3.947,-1.2204369 6.11377,-1.2204369 8.76468,-1e-6 15.86985,7.1051799 15.86985,15.8698589 0,8.764678 -7.10517,15.869857 -15.86985,15.869858 -8.76469,-10e-7 -15.86987,-7.10518 -15.86987,-15.869858 0,-2.242241 0.46502,-4.375872 1.30388,-6.309715"
         style="opacity:1;fill:none;fill-opacity:1;stroke:#000000;stroke-width:1.49999988;stroke-linecap:round;stroke-linejoin:round;stroke-miterlimit:4;stroke-dasharray:none;stroke-opacity:1" />
      <path
         sodipodi:nodetypes="cssssc"
         inkscape:connector-curvature="0"
         id="path1291"
         d="m 134.55064,39.855931 c -3.18365,2.192574 -7.04177,3.476188 -11.19968,3.476188 -10.91834,1e-6 -19.76941,-8.851064 -19.76941,-19.769401 0,-10.918339 8.85107,-19.7694014 19.76941,-19.769402 10.91833,6e-7 19.7694,8.851063 19.7694,19.769402 0,4.038997 -1.21124,7.795095 -3.29031,10.924876"
         style="opacity:1;fill:none;fill-opacity:1;stroke:#000000;stroke-width:1.49999976;stroke-linecap:round;stroke-linejoin:round;stroke-miterlimit:4;stroke-dasharray:none;stroke-opacity:1" />
      <circle
         style="opacity:1;fill:#000000;fill-opacity:1;stroke:none;stroke-width:1.5;stroke-linecap:round;stroke-linejoin:round;stroke-miterlimit:4;stroke-dasharray:none;stroke-opacity:1"
         id="circle1293"
         cx="137.30972"
         cy="37.548107"
         r="0.85756952" />
      <path
         style="color:#000000;font-style:normal;font-variant:normal;font-weight:normal;font-stretch:normal;font-size:medium;line-height:normal;font-family:sans-serif;font-variant-ligatures:normal;font-variant-position:normal;font-variant-caps:normal;font-variant-numeric:normal;font-variant-alternates:normal;font-feature-settings:normal;text-indent:0;text-align:start;text-decoration:none;text-decoration-line:none;text-decoration-style:solid;text-decoration-color:#000000;letter-spacing:normal;word-spacing:normal;text-transform:none;writing-mode:lr-tb;direction:ltr;text-orientation:mixed;dominant-baseline:auto;baseline-shift:baseline;text-anchor:start;white-space:normal;shape-padding:0;clip-rule:nonzero;display:inline;overflow:visible;visibility:visible;opacity:1;isolation:auto;mix-blend-mode:normal;color-interpolation:sRGB;color-interpolation-filters:linearRGB;solid-color:#000000;solid-opacity:1;vector-effect:none;fill:none;fill-opacity:1;fill-rule:nonzero;stroke:#000000;stroke-width:5.6692915;stroke-linecap:round;stroke-linejoin:round;stroke-miterlimit:4;stroke-dasharray:none;stroke-dashoffset:0;stroke-opacity:1;color-rendering:auto;image-rendering:auto;shape-rendering:auto;text-rendering:auto;enable-background:accumulate"
         d="m 659.94918,117.67577 c 5.88521,6.12412 14.25185,0.4033 13.93555,-6.02734 -0.0884,-1.80057 -0.85736,-3.65681 -2.55274,-5.32422 -4.38769,-4.43988 -10.27415,-10.243977 -14.66213,-14.683591 l 14.9238,-14.611328 c 6.12412,-5.885208 0.4033,-14.251856 -6.02734,-13.935547 -1.80057,0.08859 -3.65681,0.857367 -5.32422,2.552734 -4.94359,4.81467 -9.72759,9.794057 -14.80659,14.4668 l -14.4902,-14.654294 c -1.88327,-1.959732 -4.01918,-2.706732 -6.04492,-2.605468 -6.07722,0.30379 -11.15059,8.240288 -5.33789,13.957031 4.80598,4.890282 9.71217,9.679454 14.38472,14.687497 L 619.37695,106.0332 c -7.83893,7.53307 3.72924,19.13307 11.35157,11.38282 4.86621,-4.82141 9.74684,-9.62708 14.6133,-14.43745 z"
         transform="matrix(0.26458333,0,0,0.26458333,-47.413614,-1.0690785)"
         id="path1295"
         inkscape:connector-curvature="0"
         sodipodi:nodetypes="cccccccccscccccc" />
    </g>
  </g>
</svg>
